<svg width="209" height="109" viewBox="0 0 209 109" fill="none" xmlns="http://www.w3.org/2000/svg">
<path d="M44.6084 50.3769C44.419 52.8877 42.3323 54.8653 39.7873 54.8653C37.116 54.8653 34.9498 52.6878 34.9498 50C34.9498 47.3122 37.0365 45.2144 39.6414 45.138L38.9067 50.3769H44.6084Z" fill="#F3F0EB"/>
<path d="M50.8871 45.1631H46.226L46.9249 40.1809C48.6502 41.4516 50.0239 43.168 50.8861 45.1631H50.8871Z" fill="#FFA700"/>
<path d="M51.8745 50.3769C51.6752 56.9194 46.3392 62.1616 39.7873 62.1616C33.2354 62.1616 27.6969 56.7194 27.6969 50C27.6969 43.2806 33.1091 37.8384 39.7873 37.8384C40.0801 37.8384 40.3686 37.8482 40.6614 37.8679L39.9832 42.7037H39.7873C35.7804 42.7037 32.5343 45.9683 32.5343 50C32.5343 54.0317 35.7804 57.2963 39.7873 57.2963C43.7942 57.2963 46.8378 54.2316 47.0337 50.3769H51.8745Z" fill="#F3F0EB"/>
<path d="M58.5298 45.1631H53.4844C52.3599 41.9498 50.1513 39.2511 47.2982 37.5095L48.0156 32.3809C53.1785 34.8261 57.0907 39.4958 58.5298 45.1631Z" fill="#FFA700"/>
<path d="M59.1274 50.3769C58.9315 60.9521 50.3494 69.4591 39.7873 69.4591C29.2252 69.4591 20.4406 60.7456 20.4406 50C20.4406 39.2544 29.1054 30.5409 39.7873 30.5409C40.4219 30.5409 41.05 30.5704 41.6716 30.6305L40.9967 35.4521C40.5982 35.4183 40.1955 35.4019 39.7873 35.4019C31.7767 35.4019 25.2781 41.9378 25.2781 49.9978C25.2781 58.0579 31.7767 64.5938 39.7873 64.5938C47.7979 64.5938 54.094 58.2611 54.2899 50.3737H59.1274V50.3769Z" fill="#F3F0EB"/>
<path d="M71.2603 38.3846H67.2207V61.3313H71.2603V38.3846Z" fill="#F3F0EB"/>
<path d="M89.1581 53.4744C89.1581 51.1265 88.4103 49.1554 86.919 47.5657C85.4277 45.9683 83.5336 45.1751 81.2346 45.1751C78.8126 45.1751 76.8325 45.9651 75.2846 47.5493C73.74 49.1303 72.9693 51.1046 72.9693 53.4755C72.9693 55.8465 73.7498 57.8437 75.3184 59.4149C76.8837 60.9893 78.9628 61.7727 81.5481 61.7727C84.5547 61.7727 86.8308 60.6561 88.3754 58.4108L85.1196 56.5228C84.3261 57.5728 83.1591 58.0939 81.6112 58.0939C79.2121 58.0939 77.7404 57.1106 77.1961 55.1396H89.0035C89.1102 54.5528 89.1603 53.9989 89.1603 53.4755L89.1581 53.4744ZM77.1319 51.9973C77.3648 50.9899 77.8329 50.2098 78.5437 49.6558C79.2513 49.0953 80.1515 48.8222 81.2346 48.8222C82.1544 48.8222 82.9719 49.0822 83.6936 49.6056C84.4142 50.1289 84.8867 50.9265 85.1185 51.9962H77.1319V51.9973Z" fill="#F3F0EB"/>
<path d="M101.983 56.7435C101.983 58.3572 101.386 59.6017 100.183 60.4681C98.98 61.3389 97.4854 61.7716 95.6872 61.7716C92.4749 61.7716 90.2815 60.5239 89.1124 58.0327L92.6207 56.0519C93.0758 57.4154 94.1023 58.0928 95.6872 58.0928C97.1295 58.0928 97.8501 57.6427 97.8501 56.7424C97.8501 56.3217 97.5714 55.9852 97.0195 55.7219C96.4677 55.4586 95.7938 55.2215 94.9992 55.015C94.2057 54.8052 93.4143 54.5419 92.6207 54.2283C91.8239 53.9148 91.1523 53.4144 90.6004 52.7348C90.0453 52.0574 89.7699 51.2008 89.7699 50.1737C89.7699 48.6233 90.3381 47.4029 91.4745 46.5124C92.6142 45.622 94.0293 45.1751 95.7209 45.1751C96.9934 45.1751 98.1495 45.4614 99.1966 46.0426C100.243 46.6195 101.063 47.4401 101.672 48.5108L98.2267 50.3944C97.7249 49.327 96.8911 48.7905 95.722 48.7905C95.2006 48.7905 94.7652 48.9074 94.4234 49.1368C94.0783 49.3707 93.9052 49.6842 93.9052 50.0809C93.9052 50.5015 94.1839 50.838 94.7358 51.1013C95.2877 51.3646 95.9615 51.5952 96.7561 51.7951C97.5508 51.9951 98.341 52.242 99.1346 52.549C99.9281 52.8528 100.603 53.3597 101.155 54.0732C101.707 54.7834 101.985 55.6771 101.985 56.7446L101.983 56.7435Z" fill="#F3F0EB"/>
<path d="M115.183 56.7435C115.183 58.3572 114.585 59.6017 113.382 60.4681C112.18 61.3389 110.685 61.7716 108.887 61.7716C105.675 61.7716 103.481 60.5239 102.312 58.0327L105.82 56.0519C106.275 57.4154 107.302 58.0928 108.887 58.0928C110.329 58.0928 111.05 57.6427 111.05 56.7424C111.05 56.3217 110.771 55.9852 110.219 55.7219C109.667 55.4586 108.993 55.2215 108.199 55.015C107.405 54.8052 106.614 54.5419 105.82 54.2283C105.024 53.9148 104.352 53.4144 103.8 52.7348C103.245 52.0574 102.97 51.2008 102.97 50.1737C102.97 48.6233 103.538 47.4029 104.677 46.5124C105.814 45.622 107.229 45.1751 108.921 45.1751C110.193 45.1751 111.349 45.4614 112.396 46.0426C113.442 46.6195 114.263 47.4401 114.872 48.5108L111.426 50.3944C110.925 49.327 110.091 48.7905 108.922 48.7905C108.4 48.7905 107.965 48.9074 107.623 49.1368C107.278 49.3707 107.105 49.6842 107.105 50.0809C107.105 50.5015 107.384 50.838 107.935 51.1013C108.487 51.3646 109.161 51.5952 109.956 51.7951C110.75 51.9951 111.541 52.242 112.334 52.549C113.128 52.8528 113.803 53.3597 114.355 54.0732C114.906 54.7834 115.185 55.6771 115.185 56.7446L115.183 56.7435Z" fill="#F3F0EB"/>
<path d="M131.766 53.4744C131.766 51.1265 131.018 49.1554 129.527 47.5657C128.034 45.9683 126.141 45.1751 123.842 45.1751C121.42 45.1751 119.44 45.9651 117.892 47.5493C116.348 49.1303 115.577 51.1046 115.577 53.4755C115.577 55.8465 116.357 57.8437 117.926 59.4149C119.491 60.9893 121.57 61.7727 124.156 61.7727C127.162 61.7727 129.438 60.6561 130.983 58.4108L127.727 56.5228C126.934 57.5728 125.767 58.0939 124.219 58.0939C121.82 58.0939 120.348 57.1106 119.804 55.1396H131.612C131.719 54.5528 131.768 53.9989 131.768 53.4755L131.766 53.4744ZM119.738 51.9973C119.971 50.9899 120.44 50.2098 121.15 49.6558C121.858 49.0953 122.758 48.8222 123.841 48.8222C124.761 48.8222 125.579 49.0822 126.3 49.6056C127.021 50.1289 127.493 50.9265 127.725 51.9962H119.738V51.9973Z" fill="#F3F0EB"/>
<path d="M155.724 49.5127V56.0519C155.724 56.5916 155.856 56.9959 156.128 57.2461C156.401 57.4963 156.796 57.6394 157.321 57.67C157.84 57.7039 158.487 57.6929 159.262 57.6569V61.3324C156.481 61.6492 154.525 61.3859 153.392 60.549C152.252 59.7088 151.684 58.2108 151.684 56.0541V49.5149H148.959V45.6165H151.684V42.4414L155.724 41.2177V45.6165H159.262V49.5149H155.724V49.5127Z" fill="#F3F0EB"/>
<path d="M164.71 39.4849C164.218 38.9812 163.631 38.731 162.939 38.731C162.248 38.731 161.693 38.9812 161.202 39.4849C160.728 39.9722 160.485 40.5381 160.472 41.1828C160.618 42.4371 161.678 43.4106 162.97 43.4106C164.192 43.4106 165.216 42.5332 165.442 41.3696C165.449 41.3292 165.449 41.2866 165.449 41.2461C165.449 40.5764 165.199 39.9886 164.71 39.4849Z" fill="#001F3F"/>
<path d="M164.976 45.6143H160.937V61.3313H164.976V45.6143Z" fill="#F3F0EB"/>
<path d="M182.875 53.4744C182.875 51.1265 182.127 49.1554 180.636 47.5657C179.141 45.9683 177.247 45.1751 174.951 45.1751C172.529 45.1751 170.546 45.9651 169 47.5493C167.456 49.1303 166.685 51.1046 166.685 53.4755C166.685 55.8465 167.469 57.8437 169.034 59.4149C170.6 60.9893 172.675 61.7727 175.267 61.7727C178.27 61.7727 180.547 60.6561 182.091 58.4108L178.835 56.5228C178.042 57.5728 176.872 58.0939 175.327 58.0939C172.925 58.0939 171.453 57.1106 170.912 55.1396H182.72C182.824 54.5528 182.876 53.9989 182.876 53.4755L182.875 53.4744ZM170.851 51.9973C171.077 50.9899 171.545 50.2098 172.26 49.6558C172.967 49.0953 173.864 48.8222 174.95 48.8222C175.867 48.8222 176.688 49.0822 177.409 49.6056C178.13 50.1289 178.606 50.9265 178.834 51.9962H170.851V51.9973Z" fill="#F3F0EB"/>
<path d="M188.559 38.3846H184.52V61.3313H188.559V38.3846Z" fill="#F3F0EB"/>
<path d="M148.062 52.4846C148.062 52.6911 148.056 52.8976 148.036 53.0986V61.3324H143.996V52.1852C143.996 51.2947 143.793 50.5845 143.384 50.0481C143.314 49.9552 143.235 49.8645 143.148 49.7815C142.586 49.2275 141.832 48.9511 140.895 48.9511C140.039 48.9511 139.32 49.1707 138.746 49.6143C138.619 49.7039 138.503 49.811 138.39 49.9246C137.761 50.5714 137.449 51.5449 137.449 52.8462V61.3335H133.409V53.3936C133.369 53.0997 133.35 52.7938 133.35 52.4867C133.35 52.1797 133.369 51.8727 133.409 51.5799C133.715 49.0658 135.276 46.9407 137.449 45.8678C138.339 45.4209 139.34 45.1544 140.392 45.1106C140.499 45.1074 140.598 45.1041 140.705 45.1041C144.563 45.1041 147.725 48.0825 148.034 51.8738C148.054 52.0737 148.06 52.2802 148.06 52.4878L148.062 52.4846Z" fill="#F3F0EB"/>
<path d="M165.489 40.9806C165.489 41.1478 165.472 41.3106 165.442 41.4679C165.216 42.6316 164.192 43.5089 162.97 43.5089C161.678 43.5089 160.618 42.5354 160.472 41.2811C160.459 41.1806 160.452 41.0812 160.452 40.9806C160.452 39.5865 161.579 38.4557 162.971 38.4557C164.363 38.4557 165.49 39.5865 165.49 40.9806H165.489Z" fill="#FFA700"/>
</svg>
